<mxfile host="app.diagrams.net" modified="2023-08-25T08:11:38.298Z" agent="Mozilla/5.0 (Macintosh; Intel Mac OS X 10_15_7) AppleWebKit/537.36 (KHTML, like Gecko) Chrome/115.0.0.0 Safari/537.36" etag="GppdFv7wdTxCRmvYFhFP" version="21.2.9" type="google">
  <diagram id="C5RBs43oDa-KdzZeNtuy" name="Page-1">
    <mxGraphModel grid="1" page="1" gridSize="10" guides="1" tooltips="1" connect="1" arrows="1" fold="1" pageScale="1" pageWidth="3300" pageHeight="4681" math="0" shadow="0">
      <root>
        <mxCell id="WIyWlLk6GJQsqaUBKTNV-0" />
        <mxCell id="WIyWlLk6GJQsqaUBKTNV-1" parent="WIyWlLk6GJQsqaUBKTNV-0" />
        <mxCell id="DvchbdSIZYe9JUQncs_V-74" style="edgeStyle=orthogonalEdgeStyle;rounded=0;jumpStyle=arc;orthogonalLoop=1;jettySize=auto;html=1;exitX=0.5;exitY=0;exitDx=0;exitDy=0;entryX=0.5;entryY=1;entryDx=0;entryDy=0;endArrow=classic;endFill=1;fontSize=10;" edge="1" parent="WIyWlLk6GJQsqaUBKTNV-1" source="DvchbdSIZYe9JUQncs_V-31" target="DvchbdSIZYe9JUQncs_V-33">
          <mxGeometry relative="1" as="geometry" />
        </mxCell>
        <mxCell id="DvchbdSIZYe9JUQncs_V-31" value="&lt;font style=&quot;font-size: 8px&quot;&gt;Macro Block Circuit (MNT6)&lt;br&gt;&lt;/font&gt;" style="ellipse;whiteSpace=wrap;html=1;rounded=0;fontSize=15;fillColor=#f5f5f5;strokeColor=#666666;fontColor=#333333;" vertex="1" parent="WIyWlLk6GJQsqaUBKTNV-1">
          <mxGeometry x="680" y="280" width="80" height="40" as="geometry" />
        </mxCell>
        <mxCell id="DvchbdSIZYe9JUQncs_V-79" style="edgeStyle=orthogonalEdgeStyle;rounded=0;jumpStyle=arc;orthogonalLoop=1;jettySize=auto;html=1;exitX=1;exitY=0.5;exitDx=0;exitDy=0;entryX=0;entryY=0.5;entryDx=0;entryDy=0;endArrow=classic;endFill=1;fontSize=10;" edge="1" parent="WIyWlLk6GJQsqaUBKTNV-1" source="DvchbdSIZYe9JUQncs_V-32" target="DvchbdSIZYe9JUQncs_V-36">
          <mxGeometry relative="1" as="geometry" />
        </mxCell>
        <mxCell id="DvchbdSIZYe9JUQncs_V-32" value="&lt;font style=&quot;font-size: 8px&quot;&gt;Merger Circuit (MNT6)&lt;br&gt;&lt;/font&gt;" style="ellipse;whiteSpace=wrap;html=1;rounded=0;fontSize=15;fillColor=#f5f5f5;strokeColor=#666666;fontColor=#333333;" vertex="1" parent="WIyWlLk6GJQsqaUBKTNV-1">
          <mxGeometry x="440" y="120" width="80" height="40" as="geometry" />
        </mxCell>
        <mxCell id="DvchbdSIZYe9JUQncs_V-75" style="edgeStyle=orthogonalEdgeStyle;rounded=0;jumpStyle=arc;orthogonalLoop=1;jettySize=auto;html=1;exitX=0.5;exitY=0;exitDx=0;exitDy=0;entryX=0.5;entryY=1;entryDx=0;entryDy=0;endArrow=classic;endFill=1;fontSize=10;" edge="1" parent="WIyWlLk6GJQsqaUBKTNV-1" source="DvchbdSIZYe9JUQncs_V-33" target="DvchbdSIZYe9JUQncs_V-37">
          <mxGeometry relative="1" as="geometry" />
        </mxCell>
        <mxCell id="DvchbdSIZYe9JUQncs_V-33" value="&lt;font style=&quot;font-size: 8px&quot;&gt;Macro Block Wrapper Circuit (MNT4)&lt;br&gt;&lt;/font&gt;" style="ellipse;whiteSpace=wrap;html=1;rounded=0;fontSize=15;fillColor=#f5f5f5;strokeColor=#666666;fontColor=#333333;" vertex="1" parent="WIyWlLk6GJQsqaUBKTNV-1">
          <mxGeometry x="680" y="200" width="80" height="40" as="geometry" />
        </mxCell>
        <mxCell id="DvchbdSIZYe9JUQncs_V-80" style="edgeStyle=orthogonalEdgeStyle;rounded=0;jumpStyle=arc;orthogonalLoop=1;jettySize=auto;html=1;exitX=1;exitY=0.5;exitDx=0;exitDy=0;entryX=0;entryY=0.5;entryDx=0;entryDy=0;endArrow=classic;endFill=1;fontSize=10;" edge="1" parent="WIyWlLk6GJQsqaUBKTNV-1" source="DvchbdSIZYe9JUQncs_V-36" target="DvchbdSIZYe9JUQncs_V-37">
          <mxGeometry relative="1" as="geometry" />
        </mxCell>
        <mxCell id="DvchbdSIZYe9JUQncs_V-36" value="&lt;font style=&quot;font-size: 8px&quot;&gt;Merger Wrapper Circuit (MNT4)&lt;br&gt;&lt;/font&gt;" style="ellipse;whiteSpace=wrap;html=1;rounded=0;fontSize=15;fillColor=#f5f5f5;strokeColor=#666666;fontColor=#333333;" vertex="1" parent="WIyWlLk6GJQsqaUBKTNV-1">
          <mxGeometry x="560" y="120" width="80" height="40" as="geometry" />
        </mxCell>
        <mxCell id="DvchbdSIZYe9JUQncs_V-82" style="edgeStyle=orthogonalEdgeStyle;rounded=0;jumpStyle=arc;orthogonalLoop=1;jettySize=auto;html=1;exitX=1;exitY=0.5;exitDx=0;exitDy=0;entryX=0;entryY=0.5;entryDx=0;entryDy=0;endArrow=classic;endFill=1;fontSize=10;" edge="1" parent="WIyWlLk6GJQsqaUBKTNV-1" source="DvchbdSIZYe9JUQncs_V-37" target="DvchbdSIZYe9JUQncs_V-81">
          <mxGeometry relative="1" as="geometry" />
        </mxCell>
        <mxCell id="DvchbdSIZYe9JUQncs_V-37" value="&lt;font style=&quot;font-size: 8px&quot;&gt;Merger Circuit (MNT6)&lt;br&gt;&lt;/font&gt;" style="ellipse;whiteSpace=wrap;html=1;rounded=0;fontSize=15;fillColor=#f5f5f5;strokeColor=#666666;fontColor=#333333;" vertex="1" parent="WIyWlLk6GJQsqaUBKTNV-1">
          <mxGeometry x="680" y="120" width="80" height="40" as="geometry" />
        </mxCell>
        <mxCell id="DvchbdSIZYe9JUQncs_V-78" style="edgeStyle=orthogonalEdgeStyle;rounded=0;jumpStyle=arc;orthogonalLoop=1;jettySize=auto;html=1;exitX=0.5;exitY=0;exitDx=0;exitDy=0;entryX=0.5;entryY=1;entryDx=0;entryDy=0;endArrow=classic;endFill=1;fontSize=10;" edge="1" parent="WIyWlLk6GJQsqaUBKTNV-1" source="DvchbdSIZYe9JUQncs_V-38" target="DvchbdSIZYe9JUQncs_V-32">
          <mxGeometry relative="1" as="geometry" />
        </mxCell>
        <mxCell id="DvchbdSIZYe9JUQncs_V-38" value="&lt;font style=&quot;font-size: 8px&quot;&gt;Macro Block Wrapper Circuit (MNT4)&lt;br&gt;&lt;/font&gt;" style="ellipse;whiteSpace=wrap;html=1;rounded=0;fontSize=15;fillColor=#f5f5f5;strokeColor=#666666;fontColor=#333333;" vertex="1" parent="WIyWlLk6GJQsqaUBKTNV-1">
          <mxGeometry x="440" y="200" width="80" height="40" as="geometry" />
        </mxCell>
        <mxCell id="DvchbdSIZYe9JUQncs_V-77" style="edgeStyle=orthogonalEdgeStyle;rounded=0;jumpStyle=arc;orthogonalLoop=1;jettySize=auto;html=1;exitX=0.5;exitY=0;exitDx=0;exitDy=0;entryX=0.5;entryY=1;entryDx=0;entryDy=0;endArrow=classic;endFill=1;fontSize=10;" edge="1" parent="WIyWlLk6GJQsqaUBKTNV-1" source="DvchbdSIZYe9JUQncs_V-39" target="DvchbdSIZYe9JUQncs_V-38">
          <mxGeometry relative="1" as="geometry" />
        </mxCell>
        <mxCell id="DvchbdSIZYe9JUQncs_V-39" value="&lt;font style=&quot;font-size: 8px&quot;&gt;Macro Block Circuit (MNT6)&lt;br&gt;&lt;/font&gt;" style="ellipse;whiteSpace=wrap;html=1;rounded=0;fontSize=15;fillColor=#f5f5f5;strokeColor=#666666;fontColor=#333333;" vertex="1" parent="WIyWlLk6GJQsqaUBKTNV-1">
          <mxGeometry x="440" y="280" width="80" height="40" as="geometry" />
        </mxCell>
        <mxCell id="DvchbdSIZYe9JUQncs_V-76" style="edgeStyle=orthogonalEdgeStyle;rounded=0;jumpStyle=arc;orthogonalLoop=1;jettySize=auto;html=1;exitX=0;exitY=0;exitDx=50;exitDy=0;exitPerimeter=0;entryX=0.5;entryY=1;entryDx=0;entryDy=0;endArrow=classic;endFill=1;fontSize=10;" edge="1" parent="WIyWlLk6GJQsqaUBKTNV-1" source="DvchbdSIZYe9JUQncs_V-69" target="DvchbdSIZYe9JUQncs_V-39">
          <mxGeometry relative="1" as="geometry" />
        </mxCell>
        <mxCell id="DvchbdSIZYe9JUQncs_V-69" value="" style="verticalLabelPosition=bottom;verticalAlign=top;html=1;shape=mxgraph.basic.acute_triangle;dx=0.5;rounded=0;fontSize=15;fillColor=#f5f5f5;strokeColor=#666666;fontColor=#333333;" vertex="1" parent="WIyWlLk6GJQsqaUBKTNV-1">
          <mxGeometry x="430" y="350" width="100" height="70" as="geometry" />
        </mxCell>
        <mxCell id="DvchbdSIZYe9JUQncs_V-70" value="PK Tree Circuits" style="text;html=1;strokeColor=none;fillColor=none;align=center;verticalAlign=middle;whiteSpace=wrap;rounded=0;fontSize=10;" vertex="1" parent="WIyWlLk6GJQsqaUBKTNV-1">
          <mxGeometry x="455" y="380" width="50" height="30" as="geometry" />
        </mxCell>
        <mxCell id="DvchbdSIZYe9JUQncs_V-73" style="edgeStyle=orthogonalEdgeStyle;rounded=0;jumpStyle=arc;orthogonalLoop=1;jettySize=auto;html=1;exitX=0;exitY=0;exitDx=50;exitDy=0;exitPerimeter=0;entryX=0.5;entryY=1;entryDx=0;entryDy=0;endArrow=classic;endFill=1;fontSize=10;" edge="1" parent="WIyWlLk6GJQsqaUBKTNV-1" source="DvchbdSIZYe9JUQncs_V-71" target="DvchbdSIZYe9JUQncs_V-31">
          <mxGeometry relative="1" as="geometry" />
        </mxCell>
        <mxCell id="DvchbdSIZYe9JUQncs_V-71" value="" style="verticalLabelPosition=bottom;verticalAlign=top;html=1;shape=mxgraph.basic.acute_triangle;dx=0.5;rounded=0;fontSize=15;fillColor=#f5f5f5;strokeColor=#666666;fontColor=#333333;" vertex="1" parent="WIyWlLk6GJQsqaUBKTNV-1">
          <mxGeometry x="670" y="350" width="100" height="70" as="geometry" />
        </mxCell>
        <mxCell id="DvchbdSIZYe9JUQncs_V-72" value="PK Tree Circuits" style="text;html=1;strokeColor=none;fillColor=none;align=center;verticalAlign=middle;whiteSpace=wrap;rounded=0;fontSize=10;" vertex="1" parent="WIyWlLk6GJQsqaUBKTNV-1">
          <mxGeometry x="695" y="380" width="50" height="30" as="geometry" />
        </mxCell>
        <mxCell id="DvchbdSIZYe9JUQncs_V-81" value="&lt;font style=&quot;font-size: 8px&quot;&gt;Merger Wrapper Circuit (MNT4)&lt;br&gt;&lt;/font&gt;" style="ellipse;whiteSpace=wrap;html=1;rounded=0;fontSize=15;fillColor=#f5f5f5;strokeColor=#666666;fontColor=#333333;" vertex="1" parent="WIyWlLk6GJQsqaUBKTNV-1">
          <mxGeometry x="800" y="120" width="80" height="40" as="geometry" />
        </mxCell>
        <mxCell id="DvchbdSIZYe9JUQncs_V-84" style="edgeStyle=orthogonalEdgeStyle;rounded=0;jumpStyle=arc;orthogonalLoop=1;jettySize=auto;html=1;exitX=1;exitY=0.5;exitDx=0;exitDy=0;entryX=0;entryY=0.5;entryDx=0;entryDy=0;endArrow=classic;endFill=1;fontSize=10;" edge="1" parent="WIyWlLk6GJQsqaUBKTNV-1" source="DvchbdSIZYe9JUQncs_V-83" target="DvchbdSIZYe9JUQncs_V-32">
          <mxGeometry relative="1" as="geometry" />
        </mxCell>
        <mxCell id="DvchbdSIZYe9JUQncs_V-83" value="..." style="ellipse;whiteSpace=wrap;html=1;rounded=0;fontSize=15;fillColor=#f5f5f5;strokeColor=#666666;fontColor=#333333;" vertex="1" parent="WIyWlLk6GJQsqaUBKTNV-1">
          <mxGeometry x="320" y="120" width="80" height="40" as="geometry" />
        </mxCell>
      </root>
    </mxGraphModel>
  </diagram>
</mxfile>
